<?xml version="1.0" encoding="UTF-8" standalone="no"?>
<!-- Created with Inkscape (http://www.inkscape.org/) -->

<svg
   xmlns:dc="http://purl.org/dc/elements/1.1/"
   xmlns:cc="http://creativecommons.org/ns#"
   xmlns:rdf="http://www.w3.org/1999/02/22-rdf-syntax-ns#"
   xmlns:svg="http://www.w3.org/2000/svg"
   xmlns="http://www.w3.org/2000/svg"
   xmlns:sodipodi="http://sodipodi.sourceforge.net/DTD/sodipodi-0.dtd"
   xmlns:inkscape="http://www.inkscape.org/namespaces/inkscape"
   width="1024"
   height="1024"
   id="svg2"
   version="1.1"
   inkscape:version="0.48.4 r9939"
   sodipodi:docname="layout_tiled2.svg">
  <title
     id="title3062">T</title>
  <defs
     id="defs4" />
  <sodipodi:namedview
     id="base"
     pagecolor="#959595"
     bordercolor="#000000"
     borderopacity="0.70196078"
     inkscape:pageopacity="0"
     inkscape:pageshadow="2"
     inkscape:zoom="0.49497475"
     inkscape:cx="153.92229"
     inkscape:cy="491.42858"
     inkscape:document-units="px"
     inkscape:current-layer="layer1"
     showgrid="true"
     inkscape:showpageshadow="false"
     showborder="true"
     inkscape:window-width="1892"
     inkscape:window-height="1028"
     inkscape:window-x="19"
     inkscape:window-y="34"
     inkscape:window-maximized="0"
     inkscape:object-nodes="true">
    <inkscape:grid
       type="xygrid"
       id="grid2985"
       empspacing="4"
       visible="true"
       enabled="true"
       snapvisiblegridlinesonly="true"
       originx="0px"
       spacingx="64px"
       spacingy="64px" />
  </sodipodi:namedview>
  <metadata
     id="metadata7">
    <rdf:RDF>
      <cc:Work
         rdf:about="">
        <dc:format>image/svg+xml</dc:format>
        <dc:type
           rdf:resource="http://purl.org/dc/dcmitype/StillImage" />
        <dc:title>T</dc:title>
        <cc:license
           rdf:resource="" />
      </cc:Work>
    </rdf:RDF>
  </metadata>
  <g
     inkscape:label="Layer 1"
     inkscape:groupmode="layer"
     id="layer1"
     transform="translate(0,-28.362183)">
    <path
       style="fill:#000000;fill-opacity:1;fill-rule:nonzero;stroke:none"
       d="M 128 0 C 57.088 0 0 57.088009 0 128 L 0 512 L 0 896 L 0 1024 L 128 1024 L 896 1024 L 1024 1024 L 1024 896 L 1024 512 L 1024 128 C 1024 57.088009 966.912 9.4739031e-15 896 0 L 128 0 z M 64 128 L 960 128 L 960 960 L 64 960 L 64 128 z M 256 256 C 220.544 256 192 284.544 192 320 L 192 768 C 192 803.456 220.544 832 256 832 L 448 832 C 483.456 832 512 803.456 512 768 L 512 320 C 512 284.544 483.456 256 448 256 L 256 256 z M 640 256 C 604.544 256 576 284.544 576 320 L 576 448 C 576 483.456 604.544 512 640 512 L 768 512 C 803.456 512 832 483.456 832 448 L 832 320 C 832 284.544 803.456 256 768 256 L 640 256 z M 640 576 C 604.544 576 576 604.544 576 640 L 576 768 C 576 803.456 604.544 832 640 832 L 768 832 C 803.456 832 832 803.456 832 768 L 832 640 C 832 604.544 803.456 576 768 576 L 640 576 z "
       transform="translate(0,28.362183)"
       id="path3045" />
  </g>
</svg>
